<?xml version="1.0" encoding="UTF-8"?>
<svg width="700pt" height="700pt" version="1.1" viewBox="0 0 700 700" xmlns="http://www.w3.org/2000/svg" xmlns:xlink="http://www.w3.org/1999/xlink">
  <path d="m212.24 417.59c12.207 12.191 19.633 28.734 19.68 47.152-0.042969 18.387-7.4688 34.926-19.633 47.074l-0.046875 0.023438c-12.188 12.129-28.828 19.543-47.336 19.543-18.484 0-35.09-7.4375-47.27-19.566-12.152-12.141-19.633-28.668-19.633-47.074 0-18.418 7.4805-35 19.633-47.168v0.015626c12.188-12.141 28.789-19.609 47.27-19.609 18.508 0 35.137 7.4844 47.336 19.609zm0-0.015626v0.015626h0.023438zm-94.605 94.266v-0.023438h-0.023437zm-19.578-312.45v96.234c62.828 0.039062 122.25 24.719 166.72 69.254 44.457 44.398 69.035 103.91 69.137 166.95h0.035156v0.17578h96.633c-0.078125-91.672-37.34-174.71-97.586-235-60.254-60.277-143.26-97.562-234.94-97.617zm0.17578-171.38v96.191c224.58 0.16406 407.15 183.01 407.3 407.81h96.473c-0.066406-138.94-56.539-264.81-147.8-356.14-91.293-91.297-217.09-147.8-355.97-147.86z"/>
</svg>
